<svg xmlns="http://www.w3.org/2000/svg" viewBox="0 0 30 30"><path d="M6.346 11.821c0-.972.17-1.89.505-2.748A7.037 7.037 0 018.252 6.82a9.518 9.518 0 012.055-1.661 9.391 9.391 0 012.503-1.055c.891-.234 1.8-.352 2.731-.352 1.424 0 2.749.302 3.978.902a7.526 7.526 0 012.989 2.617c.767 1.144 1.148 2.438 1.148 3.88 0 .865-.085 1.712-.258 2.54a10.35 10.35 0 01-.808 2.39 8.259 8.259 0 01-1.352 2.022 5.904 5.904 0 01-1.96 1.392 6.203 6.203 0 01-2.557.521 4.19 4.19 0 01-1.823-.432c-.603-.288-1.035-.683-1.296-1.189-.09.351-.216.859-.382 1.523-.16.662-.268 1.09-.315 1.283-.05.193-.143.514-.277.96-.136.444-.253.766-.352.96l-.43.843c-.19.37-.4.72-.622 1.047-.226.328-.507.719-.84 1.169l-.187.066-.123-.135c-.134-1.416-.203-2.264-.203-2.544 0-.828.099-1.758.294-2.79.191-1.032.494-2.328.9-3.887.406-1.558.639-2.474.701-2.745-.286-.584-.431-1.346-.431-2.284 0-.748.234-1.45.702-2.11.47-.657 1.064-.986 1.784-.986.552 0 .979.183 1.285.549.308.365.458.825.458 1.386 0 .595-.198 1.456-.595 2.583-.398 1.127-.595 1.968-.595 2.527 0 .566.202 1.04.607 1.411a2.1 2.1 0 001.474.561c.495 0 .954-.112 1.38-.338a3.073 3.073 0 001.061-.916 7.663 7.663 0 001.271-2.782c.12-.527.213-1.029.27-1.5.062-.473.088-.921.088-1.346 0-1.559-.495-2.774-1.479-3.644-.988-.87-2.276-1.302-3.86-1.302-1.801 0-3.307.582-4.514 1.751-1.207 1.165-1.815 2.646-1.815 4.443 0 .396.06.778.174 1.148.111.369.233.663.364.88.13.214.253.423.364.615.112.193.171.33.171.413 0 .252-.066.581-.2.987-.139.407-.303.609-.5.609-.019 0-.096-.014-.231-.043a2.762 2.762 0 01-1.224-.756 3.963 3.963 0 01-.824-1.277 8.733 8.733 0 01-.44-1.462 6.104 6.104 0 01-.165-1.44z"/></svg>