<svg xmlns="http://www.w3.org/2000/svg" fill="none" viewBox="0 0 29 18"><path fill="#2F2E2E" fill-rule="evenodd" d="M22.403 18c-3.643 0-6.597-3.052-6.597-6.817 0-5.343 3.553-8.392 7.422-11.09.44-.307.986.205.733.687-.607 1.16-1.024 2.354-1.127 3.6C26.277 4.61 29 7.569 29 11.184 29 14.948 26.046 18 22.403 18zM6.597 18C2.954 18 0 14.948 0 11.183 0 5.84 3.552 2.791 7.421.093c.44-.307.986.205.734.687-.607 1.16-1.025 2.354-1.127 3.6 3.442.23 6.166 3.188 6.166 6.803 0 3.765-2.954 6.817-6.597 6.817z" clip-rule="evenodd"/></svg>