<svg xmlns="http://www.w3.org/2000/svg" fill="none" viewBox="0 0 19 19"><path fill="#2F2E2E" d="M16.217 2.783A9.433 9.433 0 0119 9.5a9.433 9.433 0 01-2.783 6.717A9.433 9.433 0 019.5 19a9.433 9.433 0 01-6.717-2.783A9.433 9.433 0 010 9.5c0-2.539.988-4.922 2.783-6.717A9.433 9.433 0 019.5 0c2.539 0 4.922.988 6.717 2.783zm-.763 12.67c3.282-3.282 3.282-8.624 0-11.906A8.366 8.366 0 009.5 1.08a8.366 8.366 0 00-5.953 2.467c-3.283 3.282-3.283 8.624 0 11.907A8.366 8.366 0 009.5 17.92a8.366 8.366 0 005.954-2.467zm-1.768-10.14a.538.538 0 010 .764L10.264 9.5l3.414 3.423a.538.538 0 010 .763.52.52 0 01-.38.16.543.543 0 01-.38-.16l-3.422-3.422-3.423 3.422a.527.527 0 01-.38.16.543.543 0 01-.38-.923L8.737 9.5 5.314 6.077a.538.538 0 010-.763.538.538 0 01.763 0L9.5 8.736l3.423-3.422a.538.538 0 01.763 0z"/></svg>