<svg xmlns="http://www.w3.org/2000/svg" viewBox="0 0 15 15"><g clip-path="url(#clip0)"><path d="M7.499 1.875c-1.053 0-2.062.239-2.999.638l.714.714A6.694 6.694 0 017.5 2.813c2.9 0 5.505 1.877 6.534 4.687a7.274 7.274 0 01-1.795 2.751l.66.66a8.207 8.207 0 002.076-3.26.47.47 0 000-.302c-1.12-3.274-4.123-5.474-7.475-5.474z"/><path d="M9.362 7.374l.845.845c.062-.23.105-.469.105-.719A2.816 2.816 0 007.5 4.687c-.25 0-.489.044-.72.105l.846.846a1.866 1.866 0 011.736 1.736zM.936 1.6l1.901 1.901C1.578 4.453.567 5.758.024 7.348a.47.47 0 000 .304c1.119 3.273 4.123 5.473 7.475 5.473 1.394 0 2.71-.41 3.87-1.091l2.03 2.029.663-.663L1.599.937.936 1.6zM7.5 12.188c-2.9 0-5.506-1.878-6.534-4.688.507-1.386 1.419-2.514 2.541-3.33l1.705 1.705A2.79 2.79 0 004.687 7.5a2.816 2.816 0 002.812 2.813 2.79 2.79 0 001.625-.525l1.56 1.56c-.968.524-2.047.84-3.185.84zM5.89 6.553L8.447 9.11c-.28.165-.6.266-.947.266A1.877 1.877 0 015.624 7.5c0-.347.101-.668.266-.947z"/></g><defs><clipPath id="clip0"><path fill="#fff" d="M0 0h15v15H0z"/></clipPath></defs></svg>