<svg xmlns="http://www.w3.org/2000/svg" viewBox="0 0 15 11"><path d="M14.97 5.321C13.905 2.138 10.903 0 7.5 0S1.096 2.138.03 5.321a.565.565 0 000 .358C1.095 8.862 4.097 11 7.5 11s6.404-2.138 7.47-5.321a.565.565 0 000-.358zM7.5 9.9c-2.88 0-5.426-1.76-6.395-4.4.97-2.64 3.515-4.4 6.395-4.4 2.88 0 5.426 1.76 6.395 4.4-.97 2.64-3.515 4.4-6.395 4.4z"/><path d="M7.5 3.08C6.121 3.08 5 4.23 5 5.646c0 1.416 1.121 2.567 2.5 2.567S10 7.062 10 5.646C10 4.231 8.879 3.08 7.5 3.08zm0 4.278c-.919 0-1.667-.768-1.667-1.712 0-.943.748-1.71 1.667-1.71s1.667.767 1.667 1.71c0 .944-.748 1.712-1.667 1.712z"/></svg>