<svg xmlns="http://www.w3.org/2000/svg" fill="none" viewBox="0 0 30 19"><path fill="#2F2E2E" fill-rule="evenodd" d="M7.597 18.966c3.643-.018 6.581-3.085 6.562-6.85-.027-5.343-3.595-8.374-7.478-11.053-.441-.303-.985.211-.73.692.614 1.157 1.037 2.348 1.146 3.594-3.442.248-6.15 3.219-6.132 6.834.02 3.765 2.989 6.802 6.632 6.783zM23.403 18.886c3.643-.018 6.581-3.085 6.562-6.85-.027-5.344-3.595-8.374-7.478-11.053-.441-.304-.985.21-.73.692.613 1.157 1.037 2.348 1.145 3.594-3.44.247-6.15 3.219-6.131 6.834.02 3.765 2.988 6.802 6.632 6.783z" clip-rule="evenodd"/></svg>