<svg width="160" height="160" viewbox="0 0 100 100" xmlns="http://www.w3.org/2000/svg">
  <style>
    rect {
      fill: #2F2E2E;
    }
    path {
      fill: #ffffff;
    }
    @media (prefers-color-scheme: dark) {
      rect {
        fill: #ffffff;
      }
      path {
        fill: #2F2E2E;
      }
    }
  </style>
  <rect width="160" height="160" rx="30"/>
  <path d="M73.5475 65.557C77.6372 67.7 82.1464 70.0303 87.0759 72.5484C92.0044 75.0669 96.5232 78.2279 100.631 82.0318C104.739 85.8359 106.792 91.2202 106.792 98.1858C106.792 107.543 103.721 114.088 97.5769 117.822C91.4332 121.554 84.3434 123.421 76.3064 123.421C71.1629 123.421 66.5377 122.268 62.43 119.964C58.3224 117.661 55.2862 114.687 53.322 111.044L56.8039 107.508C58.4115 111.794 61.171 114.928 65.082 116.911C68.9935 118.893 72.9671 119.714 77.003 119.376C81.0393 119.036 84.6108 117.545 87.7184 114.901C90.8258 112.258 92.3799 108.437 92.3799 103.436C92.5226 98.2571 90.5492 94.2295 86.4593 91.3543C82.3696 88.4792 77.8426 85.8093 72.8774 83.3443C67.9128 80.8799 63.3588 78.1296 59.2155 75.0934C55.0717 72.0578 53 67.7713 53 62.2355C53 52.9124 56.0718 46.3765 62.2154 42.6261C68.3591 38.8756 75.4494 37 83.4859 37C91.8081 37 98.5057 39.7866 103.577 45.3585L100.47 48.466C97.8984 45.2866 94.7374 43.1259 90.9869 41.983C87.2364 40.8403 83.6113 40.6435 80.1104 41.3935C76.61 42.1435 73.6188 43.8315 71.1364 46.4565C68.6541 49.082 67.4124 52.5737 67.4124 56.931C67.4124 60.5383 69.4576 63.414 73.5475 65.557V65.557Z"/>
</svg>
