<svg xmlns="http://www.w3.org/2000/svg" fill="none" viewBox="0 0 402 170"><path fill="#fff" d="M21.401 66.96a1472.48 1472.48 0 0013.515 6.991 60.09 60.09 0 0113.54 9.483c4.104 3.805 6.155 9.189 6.155 16.154 0 9.358-3.068 15.903-9.205 19.636-6.138 3.733-13.22 5.599-21.249 5.599-5.138 0-9.758-1.152-13.862-3.456-4.103-2.304-7.136-5.277-9.098-8.92l3.478-3.537c1.606 4.286 4.362 7.421 8.27 9.403 3.907 1.983 7.876 2.804 11.908 2.465 4.032-.339 7.6-1.83 10.704-4.474 3.104-2.643 4.657-6.465 4.657-11.465.142-5.18-1.829-9.207-5.914-12.082-4.086-2.875-8.608-5.545-13.568-8.01-4.96-2.465-9.509-5.215-13.648-8.251C2.944 73.46.875 69.174.875 63.638c0-9.323 3.069-15.859 9.206-19.61 6.137-3.75 13.22-5.625 21.248-5.625 8.314 0 15.004 2.786 20.07 8.358l-3.104 3.108c-2.568-3.18-5.726-5.34-9.473-6.483-3.746-1.143-7.368-1.34-10.865-.59-3.497.75-6.485 2.438-8.964 5.063-2.48 2.626-3.72 6.117-3.72 10.475 0 3.607 2.043 6.483 6.128 8.626zM99.267 55.44L87.064 81.586l-20.07 43.182h-4.229l20.071-43.182 14.343-30.7 5.781-12.484h4.228l20.124 43.184 20.124 43.182h-15.842L111.47 81.586 99.267 55.44zM214.425 38.402v3.804h-43.138v37.45h28.741v3.858h-28.741v41.254h-14.398V38.402h57.536zM242.274 38.402h-14.397v86.366h14.397V38.402zM275.494 66.96c4.085 2.142 8.591 4.473 13.514 6.99a60.067 60.067 0 0113.541 9.484c4.103 3.804 6.155 9.189 6.155 16.154 0 9.358-3.068 15.903-9.206 19.636-6.137 3.733-13.22 5.599-21.248 5.599-5.137 0-9.759-1.152-13.862-3.457-4.103-2.303-7.135-5.276-9.098-8.919l3.478-3.537c1.607 4.286 4.362 7.421 8.27 9.403 3.906 1.983 7.876 2.804 11.908 2.465 4.032-.339 7.6-1.831 10.704-4.474 3.105-2.643 4.657-6.465 4.657-11.465.143-5.18-1.829-9.207-5.915-12.082-4.085-2.876-8.608-5.545-13.567-8.01-4.96-2.465-9.509-5.215-13.648-8.251-4.139-3.036-6.209-7.322-6.209-12.858 0-9.323 3.069-15.86 9.207-19.61 6.136-3.75 13.219-5.626 21.247-5.626 8.315 0 15.004 2.787 20.071 8.359l-3.104 3.107c-2.569-3.179-5.727-5.34-9.474-6.483-3.746-1.142-7.368-1.34-10.865-.59-3.496.75-6.484 2.439-8.964 5.064-2.48 2.625-3.72 6.117-3.72 10.474 0 3.608 2.042 6.483 6.128 8.626zM353.56 55.44l-12.203 26.146-20.071 43.182h-4.228l20.07-43.182 14.344-30.7 5.78-12.484h4.228l20.125 43.184 20.125 43.182h-15.843l-20.125-43.182L353.56 55.44zM121.097 169.494v-20.838h1.966v19.16h11.161v1.678h-13.127zM154.344 168.321c1.349 0 2.51-.255 3.484-.767a6.948 6.948 0 002.4-2.041c.626-.848 1.089-1.832 1.388-2.952a13.55 13.55 0 00.448-3.502c0-1.447-.179-2.744-.535-3.893-.357-1.147-.872-2.127-1.547-2.937a6.64 6.64 0 00-2.458-1.853c-.964-.424-2.043-.636-3.238-.636-1.33 0-2.482.26-3.455.781a7.027 7.027 0 00-2.4 2.069c-.626.859-1.089 1.848-1.387 2.967a13.518 13.518 0 00-.448 3.502c0 1.235.149 2.413.448 3.531.298 1.12.761 2.103 1.387 2.952a6.8 6.8 0 002.4 2.027c.973.502 2.144.752 3.513.752zm-9.715-9.262c0-1.524.207-2.952.622-4.283.414-1.332 1.026-2.494 1.836-3.488a8.717 8.717 0 013.007-2.359c1.194-.579 2.573-.869 4.134-.869 1.619 0 3.041.286 4.265.854 1.224.57 2.245 1.351 3.064 2.344.82.995 1.437 2.162 1.851 3.503.414 1.341.622 2.774.622 4.298 0 1.505-.208 2.919-.622 4.24-.414 1.322-1.026 2.48-1.836 3.473-.809.994-1.821 1.781-3.036 2.36-1.214.579-2.621.868-4.221.868s-3.007-.289-4.221-.868a8.66 8.66 0 01-3.036-2.36c-.81-.993-1.417-2.151-1.822-3.473-.404-1.321-.607-2.735-.607-4.24zM178.094 151.318h-.058v18.176h-1.965v-20.838h2.226l12.028 18.205h.058v-18.205h1.966v20.838h-2.284l-11.971-18.176zM207.298 167.816h4.713c.886 0 1.72-.054 2.5-.159.782-.106 1.576-.372 2.386-.796a4.706 4.706 0 001.705-1.419 7.752 7.752 0 001.056-1.954c.26-.704.443-1.442.55-2.214.105-.771.158-1.514.158-2.228 0-.752-.048-1.52-.144-2.301a9.438 9.438 0 00-.549-2.228 7.46 7.46 0 00-1.099-1.94c-.463-.588-1.06-1.075-1.793-1.461-.617-.329-1.349-.54-2.197-.637a22.627 22.627 0 00-2.573-.145h-4.713v17.482zm-1.966 1.678v-20.838h7.112c.579 0 1.147.014 1.706.043.56.029 1.109.096 1.648.202a8.25 8.25 0 011.576.478c.51.212 1.007.492 1.489.839a6.32 6.32 0 011.706 1.838c.443.724.795 1.486 1.055 2.287.261.8.443 1.611.55 2.431.105.82.159 1.577.159 2.272 0 .695-.043 1.399-.131 2.113a13.815 13.815 0 01-.419 2.098 10.772 10.772 0 01-.766 1.969 7.583 7.583 0 01-1.2 1.722 6.416 6.416 0 01-1.575 1.302 8.17 8.17 0 01-1.793.767c-.627.183-1.277.309-1.952.376-.675.068-1.359.101-2.053.101h-7.112zM243.325 168.321c1.349 0 2.511-.255 3.484-.767a6.952 6.952 0 002.401-2.041c.626-.848 1.088-1.832 1.387-2.952.299-1.119.448-2.286.448-3.502 0-1.447-.178-2.744-.534-3.893-.357-1.147-.873-2.127-1.547-2.937a6.64 6.64 0 00-2.458-1.853c-.964-.424-2.043-.636-3.238-.636-1.33 0-2.482.26-3.455.781a7.027 7.027 0 00-2.4 2.069c-.627.859-1.089 1.848-1.388 2.967a13.518 13.518 0 00-.448 3.502c0 1.235.149 2.413.448 3.531.299 1.12.761 2.103 1.388 2.952a6.8 6.8 0 002.4 2.027c.973.502 2.144.752 3.512.752zm-9.714-9.262c0-1.524.207-2.952.621-4.283.414-1.332 1.027-2.494 1.836-3.488a8.736 8.736 0 013.007-2.359c1.195-.579 2.574-.869 4.135-.869 1.619 0 3.04.286 4.265.854 1.223.57 2.245 1.351 3.065 2.344.818.995 1.435 2.162 1.85 3.503.414 1.341.622 2.774.622 4.298 0 1.505-.208 2.919-.622 4.24-.415 1.322-1.027 2.48-1.836 3.473a8.67 8.67 0 01-3.036 2.36c-1.214.579-2.622.868-4.221.868-1.601 0-3.007-.289-4.222-.868-1.214-.579-2.226-1.366-3.035-2.36-.81-.993-1.417-2.151-1.822-3.473-.405-1.321-.607-2.735-.607-4.24zM267.076 151.318h-.058v18.176h-1.966v-20.838h2.227l12.028 18.205h.057v-18.205h1.966v20.838h-2.284l-11.97-18.176zM372.419 0h11.597v1.285h-5.046V15.95h-1.505V1.285h-5.046V0zM386.261 15.95V0h2.302l5.222 14.068h.044L398.964 0h2.28v15.95h-1.505V1.73h-.044l-5.223 14.222h-1.417l-5.244-14.222h-.045V15.95h-1.505z"/></svg>