<svg xmlns="http://www.w3.org/2000/svg" fill="none" viewBox="0 0 121 26"><path fill="#fff" d="M6.172 8.577c1.228.644 2.582 1.344 4.063 2.1a18.056 18.056 0 014.071 2.849c1.234 1.142 1.851 2.76 1.851 4.852 0 2.81-.923 4.776-2.768 5.898-1.845 1.12-3.975 1.681-6.389 1.681-1.545 0-2.934-.346-4.168-1.038C1.6 24.227.687 23.334.097 22.24l1.046-1.061c.482 1.287 1.311 2.229 2.486 2.824 1.175.595 2.368.842 3.58.74a5.575 5.575 0 003.22-1.344c.932-.793 1.4-1.941 1.4-3.443.042-1.556-.55-2.765-1.78-3.63A31.217 31.217 0 005.97 13.92a27.945 27.945 0 01-4.103-2.478C.622 10.53 0 9.242 0 7.58c0-2.8.923-4.764 2.768-5.89C4.613.563 6.743 0 9.157 0c2.5 0 4.511.837 6.034 2.51l-.933.934c-.772-.955-1.722-1.604-2.848-1.947-1.127-.344-2.216-.403-3.267-.177a5.102 5.102 0 00-2.696 1.52C4.702 3.63 4.33 4.678 4.33 5.986c0 1.084.614 1.948 1.843 2.591zM29.631 5.176l-3.67 7.853L19.928 26h-1.271l6.035-12.97 4.312-9.222 1.738-3.75h1.272l6.05 12.971L44.114 26h-4.763L33.3 13.03l-3.669-7.854zM64.261.059V1.2h-12.97v11.25h8.641v1.158h-8.641V26h-4.33V.059h17.3zM72.653.059h-4.33V26h4.33V.059zM82.617 8.577c1.228.644 2.583 1.344 4.063 2.1a18.057 18.057 0 014.072 2.849c1.234 1.142 1.85 2.76 1.85 4.852 0 2.81-.922 4.776-2.768 5.898-1.845 1.12-3.974 1.681-6.388 1.681-1.545 0-2.934-.346-4.168-1.038-1.234-.692-2.146-1.585-2.736-2.68l1.046-1.061c.483 1.287 1.312 2.229 2.486 2.824 1.175.595 2.369.842 3.58.74a5.574 5.574 0 003.22-1.344c.933-.793 1.4-1.941 1.4-3.443.042-1.556-.55-2.765-1.779-3.63a31.224 31.224 0 00-4.08-2.405 27.943 27.943 0 01-4.103-2.478c-1.244-.912-1.867-2.2-1.867-3.862 0-2.8.923-4.764 2.768-5.89C81.06.563 83.188 0 85.603 0c2.499 0 4.51.837 6.034 2.51l-.933.934c-.773-.955-1.722-1.604-2.849-1.947-1.126-.344-2.215-.403-3.267-.177a5.102 5.102 0 00-2.695 1.52c-.746.789-1.119 1.838-1.119 3.146 0 1.084.614 1.948 1.843 2.591zM106.017 5.176l-3.669 7.853L96.313 26h-1.271l6.034-12.97 4.313-9.222 1.738-3.75h1.271l6.051 12.971L120.5 26h-4.763l-6.051-12.97-3.669-7.854z"/></svg>